<svg width="1331" height="1607" viewBox="0 0 1331 1607" fill="none" xmlns="http://www.w3.org/2000/svg">
<path d="M1305.9 843.8C1305.9 1202.7 1015 1493.6 656.099 1493.6C297.099 1493.6 6.19922 1202.7 6.19922 843.8C6.19922 484.8 297.099 193.9 656.099 193.9C1015 193.9 1305.9 484.8 1305.9 843.8Z" fill="#FFCD09"/>
<path d="M1184.5 622.5C1178 557.2 1142.5 458.2 1095.7 409.1C1029.7 339.8 949.8 276.3 857.4 245.6C686.8 188.9 485.2 211 334.2 309.3C251 363.5 172.9 482 169.2 591.8C161.3 644.9 194.7 670.1 184.5 712.4C171.1 767.6 108 858.5 76.1002 905.8C59.7002 930.3 43.0002 959.5 52.2002 987.4C60.8002 1013.3 143.5 1041.2 166.1 1056.9C194.5 1076.7 187.8 1140.3 199.5 1278.3C204.1 1332.5 304.3 1357.7 359.2 1363.1C417.5 1368.9 485.2 1364.5 551.2 1353C540.9 1442 527.6 1531.3 515.9 1606.5C545.6 1602.6 575.2 1598.7 604.9 1594.6C718.8 1578.7 832.9 1564 947 1549.7C970.934 1546.77 994.9 1543.8 1018.9 1540.8C987.6 1323.1 1008.4 1131.9 1068.9 963.2C1100.9 931.1 1128.5 895.9 1148.4 851.8C1180.9 780.4 1192.2 700.1 1184.5 622.5Z" fill="white"/>
<path d="M719.9 1305.7C670.5 1325.9 611.5 1342.4 551.2 1353C548.5 1376.7 545.5 1400.5 542.4 1424C613.2 1394.5 678.5 1352 734.4 1299.5C729.6 1301.6 724.8 1303.7 719.9 1305.7Z" fill="#BBDBCC"/>
<path d="M784.299 1120.4C796.199 1274.6 785.799 1440.7 773.399 1571.5C819.899 1565.3 828.899 1564.6 875.499 1558.7C878.999 1462.6 884.499 1339.6 895.599 1277C912.699 1181.4 943.699 1087 997.899 1006.4C1033.6 953.4 1080.6 902.5 1085.6 838.9C1010.6 843.1 895.499 814.5 830.899 776.1C766.299 737.7 700.699 695.4 626.199 685.8C676.199 737.1 725.999 823.9 737.599 894.6C749.099 965.4 778.699 1049 784.299 1120.4Z" fill="#BBDBCC"/>
<path d="M349.801 344.4C304.201 375.2 262.901 413.5 239.101 461.3C215.301 509 211.001 567.1 237.001 613.8C263.101 660.9 315.501 690.4 369.101 707.4C422.701 724.3 479.301 731 533.601 746.1C622.401 770.8 704.701 819.2 762.001 887.7C803.901 938 839.401 1003.2 905.701 1017.5C973.901 1032.2 1039.8 983.4 1078.9 928.9C1163.3 811.4 1176.3 653 1116.3 523C1056.3 393 926.701 294.5 779.901 261.8C633.001 229.1 472.201 261.6 349.801 344.4Z" fill="#7CD6BF"/>
<path d="M554.299 174.701C555.299 173.767 556.132 172.767 556.799 171.701C557.999 169.901 560.399 169.601 561.999 171.101L573.799 182.901C575.999 185.101 579.699 185.101 581.899 182.901L630.899 133.901C633.199 131.601 633.199 128.001 630.899 125.701L581.899 76.7006C579.699 74.4006 575.999 74.4006 573.799 76.7006L563.199 87.2006C560.999 89.4006 561.399 93.1006 563.899 94.9006C564.766 95.5006 565.599 96.2006 566.399 97.0006C571.599 102.601 571.699 111.501 566.599 117.201C560.799 123.801 550.799 124.101 544.599 117.901C543.999 117.301 543.432 116.634 542.899 115.901C541.099 113.301 537.499 112.901 535.299 115.101L524.699 125.701C522.499 128.001 522.499 131.601 524.699 133.901L536.599 145.701C538.099 147.201 537.699 149.701 535.899 150.801C535.032 151.401 534.199 152.067 533.399 152.801C527.299 159.001 527.499 169.001 534.099 174.901C539.899 179.901 548.699 179.801 554.299 174.701Z" fill="#FF7A49"/>
<path d="M110.199 293.601C110.133 294.934 110.233 296.234 110.499 297.501C110.999 299.701 109.399 301.701 107.199 301.701H90.0992C86.7992 301.701 84.1992 304.401 84.1992 307.701V378.901C84.1992 382.101 86.7992 384.801 90.0992 384.801H161.299C164.599 384.801 167.199 382.101 167.199 378.901V363.601C167.199 360.401 164.299 358.001 161.199 358.501C160.133 358.701 159.033 358.801 157.899 358.801C149.999 358.501 143.399 352.101 142.899 344.201C142.399 335.201 149.499 327.801 158.399 327.801C159.333 327.801 160.233 327.867 161.099 328.001C164.299 328.601 167.199 326.201 167.199 323.001V307.701C167.199 304.401 164.599 301.701 161.299 301.701H144.099C141.899 301.701 140.399 299.701 140.799 297.601C141.066 296.534 141.199 295.434 141.199 294.301C141.199 285.401 133.699 278.201 124.699 278.801C116.899 279.301 110.499 285.701 110.199 293.601Z" fill="#FF7A49"/>
<path d="M96.5988 451.8C95.3322 451.8 94.1322 451.9 92.9988 452.1C90.9988 452.6 89.0988 451.1 89.0988 449.1V433.4C89.0988 430.4 86.6989 427.9 83.6989 427.9H18.2988C15.2988 427.9 12.7988 430.4 12.7988 433.4V498.8C12.7988 501.8 15.2988 504.2 18.2988 504.2H32.2988C35.1988 504.2 37.4988 501.5 36.9988 498.6C36.7988 497.667 36.6989 496.667 36.6989 495.6C36.9989 488.3 42.7988 482.3 50.0988 481.9C58.2988 481.4 65.1989 487.9 65.1989 496.1C65.1989 496.967 65.1322 497.8 64.9988 498.6C64.4988 501.5 66.5988 504.2 69.4988 504.2H83.6989C86.6989 504.2 89.0988 501.8 89.0988 498.8V483C89.0988 481 90.9988 479.5 92.9988 480C93.9322 480.2 94.9322 480.3 95.9988 480.3C104.199 480.3 110.699 473.4 110.199 465.1C109.699 457.9 103.799 452.1 96.5988 451.8Z" fill="#7CD6BF"/>
<path d="M328.4 140.7C329.6 141.967 330.866 143.034 332.2 143.9C334.6 145.4 335 148.6 333 150.6L317.9 165.8C315 168.7 315 173.4 317.9 176.2L380.9 239.3C383.8 242.2 388.5 242.2 391.4 239.3L454.4 176.2C457.3 173.4 457.3 168.7 454.4 165.8L440.9 152.2C438.1 149.4 433.4 149.8 431.1 153.1C430.3 154.234 429.4 155.267 428.4 156.2C421.1 163 409.7 163.2 402.3 156.6C393.8 149.1 393.5 136.2 401.4 128.3C402.2 127.5 403.066 126.767 404 126.1C407.3 123.8 407.8 119.2 405 116.3L391.4 102.7C388.5 99.8004 383.8 99.8004 380.9 102.7L365.7 117.9C363.8 119.8 360.6 119.4 359.1 117.1C358.366 115.967 357.5 114.9 356.5 113.9C348.6 106 335.6 106.3 328.2 114.8C321.7 122.2 321.8 133.5 328.4 140.7Z" fill="#7CD6BF"/>
<path d="M1277.2 383.1C1272.7 372.3 1262.3 364.9 1251.4 363.9C1240.8 362.8 1230 367.4 1222.2 375.3C1214.4 367.4 1203.7 362.8 1193.1 363.9C1182.2 364.9 1171.7 372.3 1167.3 383.1C1161 398.6 1167.9 417.5 1179.8 428.6C1191.5 439.5 1222 456.2 1222 456.2C1222 456.2 1253 439.5 1264.7 428.6C1276.6 417.5 1283.5 398.6 1277.2 383.1Z" fill="#7CD6BF"/>
<path d="M826.9 102.9H799V75H759.4V102.9H731.6V142.5H759.4V170.4H799V142.5H826.9V102.9Z" fill="#7CD6BF"/>
<path d="M1023.5 169.7H1017.5V182.9V229.5C1013 225.8 1006.4 223.5 999 223.5C985.4 223.5 974.5 231.1 974.5 240.5C974.5 250 985.4 257.6 999 257.6C1012.3 257.6 1023 250.2 1023.4 241H1023.5V182.9H1032.7C1039.9 182.9 1045.8 177.1 1045.8 169.9V169.7H1023.5Z" fill="#FF7A49"/>
<path fill-rule="evenodd" clip-rule="evenodd" d="M219.399 354.2C211.299 354.2 204.699 347.6 204.699 339.5C204.699 331.3 211.299 324.7 219.399 324.7C227.599 324.7 234.199 331.3 234.199 339.5C234.199 347.6 227.599 354.2 219.399 354.2ZM219.399 329C213.699 329 208.999 333.7 208.999 339.5C208.999 345.2 213.699 349.9 219.399 349.9C225.199 349.9 229.799 345.2 229.799 339.5C229.799 333.7 225.199 329 219.399 329Z" fill="#44496B"/>
<path fill-rule="evenodd" clip-rule="evenodd" d="M256.399 319.6C252.999 319.6 250.299 316.9 250.299 313.5C250.299 310.1 252.999 307.4 256.399 307.4C259.799 307.4 262.499 310.1 262.499 313.5C262.499 316.9 259.799 319.6 256.399 319.6ZM256.399 311.7C255.399 311.7 254.599 312.5 254.599 313.5C254.599 314.5 255.399 315.3 256.399 315.3C257.399 315.3 258.099 314.5 258.099 313.5C258.099 312.5 257.399 311.7 256.399 311.7Z" fill="#44496B"/>
<path fill-rule="evenodd" clip-rule="evenodd" d="M213.899 259.8C209.699 259.8 206.199 256.4 206.199 252.1C206.199 247.9 209.699 244.5 213.899 244.5C218.199 244.5 221.599 247.9 221.599 252.1C221.599 256.4 218.199 259.8 213.899 259.8ZM213.899 248.8C212.099 248.8 210.599 250.3 210.599 252.1C210.599 254 212.099 255.5 213.899 255.5C215.799 255.5 217.199 254 217.199 252.1C217.199 250.3 215.799 248.8 213.899 248.8Z" fill="#44496B"/>
<path fill-rule="evenodd" clip-rule="evenodd" d="M1054 302.3C1047.1 302.3 1041.5 296.7 1041.5 289.9C1041.5 283.1 1047.1 277.5 1054 277.5C1060.8 277.5 1066.3 283.1 1066.3 289.9C1066.3 296.7 1060.8 302.3 1054 302.3ZM1054 281.9C1049.5 281.9 1045.9 285.5 1045.9 289.9C1045.9 294.3 1049.5 297.9 1054 297.9C1058.4 297.9 1062 294.3 1062 289.9C1062 285.5 1058.4 281.9 1054 281.9Z" fill="#44496B"/>
<path fill-rule="evenodd" clip-rule="evenodd" d="M1083.8 217.401C1080.5 217.401 1077.7 214.601 1077.7 211.201C1077.7 207.901 1080.5 205.101 1083.8 205.101C1087.2 205.101 1089.9 207.901 1089.9 211.201C1089.9 214.601 1087.2 217.401 1083.8 217.401ZM1083.8 209.501C1082.9 209.501 1082.1 210.301 1082.1 211.201C1082.1 212.201 1082.9 213.001 1083.8 213.001C1084.8 213.001 1085.6 212.201 1085.6 211.201C1085.6 210.301 1084.8 209.501 1083.8 209.501Z" fill="#44496B"/>
<path fill-rule="evenodd" clip-rule="evenodd" d="M1106.6 368.401C1096.8 368.401 1088.7 360.301 1088.7 350.501C1088.7 340.601 1096.8 332.601 1106.6 332.601C1116.5 332.601 1124.6 340.601 1124.6 350.501C1124.6 360.301 1116.5 368.401 1106.6 368.401ZM1106.6 336.901C1099.2 336.901 1093.1 343.001 1093.1 350.501C1093.1 357.901 1099.2 364.001 1106.6 364.001C1114.1 364.001 1120.2 357.901 1120.2 350.501C1120.2 343.001 1114.1 336.901 1106.6 336.901Z" fill="#44496B"/>
<path fill-rule="evenodd" clip-rule="evenodd" d="M1141.3 316.501C1134 316.501 1128.1 310.501 1128.1 303.301C1128.1 296.001 1134 290.101 1141.3 290.101C1148.5 290.101 1154.4 296.001 1154.4 303.301C1154.4 310.501 1148.5 316.501 1141.3 316.501ZM1141.3 294.401C1136.4 294.401 1132.4 298.401 1132.4 303.301C1132.4 308.101 1136.4 312.101 1141.3 312.101C1146.1 312.101 1150.1 308.101 1150.1 303.301C1150.1 298.401 1146.1 294.401 1141.3 294.401Z" fill="#44496B"/>
<path fill-rule="evenodd" clip-rule="evenodd" d="M1215 648C1209 648 1204.1 643.2 1204.1 637.2C1204.1 631.2 1209 626.4 1215 626.4C1220.9 626.4 1225.8 631.2 1225.8 637.2C1225.8 643.2 1220.9 648 1215 648ZM1215 630.7C1211.4 630.7 1208.5 633.6 1208.5 637.2C1208.5 640.8 1211.4 643.7 1215 643.7C1218.5 643.7 1221.4 640.8 1221.4 637.2C1221.4 633.6 1218.5 630.7 1215 630.7Z" fill="#44496B"/>
<path fill-rule="evenodd" clip-rule="evenodd" d="M1264.3 632C1256.2 632 1249.6 625.4 1249.6 617.2C1249.6 609.1 1256.2 602.5 1264.3 602.5C1272.5 602.5 1279.1 609.1 1279.1 617.2C1279.1 625.4 1272.5 632 1264.3 632ZM1264.3 606.8C1258.6 606.8 1253.9 611.5 1253.9 617.2C1253.9 623 1258.6 627.7 1264.3 627.7C1270.1 627.7 1274.7 623 1274.7 617.2C1274.7 611.5 1270.1 606.8 1264.3 606.8Z" fill="#44496B"/>
<path fill-rule="evenodd" clip-rule="evenodd" d="M1315.9 607.5C1307.7 607.5 1301.1 600.9 1301.1 592.7C1301.1 584.6 1307.7 578 1315.9 578C1324 578 1330.6 584.6 1330.6 592.7C1330.6 600.9 1324 607.5 1315.9 607.5ZM1315.9 582.3C1310.1 582.3 1305.5 587 1305.5 592.7C1305.5 598.5 1310.1 603.1 1315.9 603.1C1321.6 603.1 1326.3 598.5 1326.3 592.7C1326.3 587 1321.6 582.3 1315.9 582.3Z" fill="#44496B"/>
<path fill-rule="evenodd" clip-rule="evenodd" d="M1199.5 514.701C1193.9 514.701 1189.4 510.201 1189.4 504.601C1189.4 499.101 1193.9 494.601 1199.5 494.601C1205 494.601 1209.5 499.101 1209.5 504.601C1209.5 510.201 1205 514.701 1199.5 514.701ZM1199.5 498.901C1196.3 498.901 1193.8 501.501 1193.8 504.601C1193.8 507.801 1196.3 510.301 1199.5 510.301C1202.6 510.301 1205.2 507.801 1205.2 504.601C1205.2 501.501 1202.6 498.901 1199.5 498.901Z" fill="#44496B"/>
<path fill-rule="evenodd" clip-rule="evenodd" d="M1234.1 808.8C1223.3 808.8 1214.6 800.1 1214.6 789.4C1214.6 778.6 1223.3 769.9 1234.1 769.9C1244.8 769.9 1253.5 778.6 1253.5 789.4C1253.5 800.1 1244.8 808.8 1234.1 808.8ZM1234.1 774.2C1225.7 774.2 1218.9 781 1218.9 789.4C1218.9 797.7 1225.7 804.5 1234.1 804.5C1242.4 804.5 1249.2 797.7 1249.2 789.4C1249.2 781 1242.4 774.2 1234.1 774.2Z" fill="#44496B"/>
<path fill-rule="evenodd" clip-rule="evenodd" d="M1280.5 796.301C1274.5 796.301 1269.6 791.401 1269.6 785.401C1269.6 779.501 1274.5 774.601 1280.5 774.601C1286.4 774.601 1291.3 779.501 1291.3 785.401C1291.3 791.401 1286.4 796.301 1280.5 796.301ZM1280.5 779.001C1276.9 779.001 1274 781.901 1274 785.401C1274 789.001 1276.9 791.901 1280.5 791.901C1284 791.901 1287 789.001 1287 785.401C1287 781.901 1284 779.001 1280.5 779.001Z" fill="#44496B"/>
<path fill-rule="evenodd" clip-rule="evenodd" d="M116.4 642.101C111.3 642.101 107.1 637.901 107.1 632.801C107.1 627.701 111.3 623.601 116.4 623.601C121.5 623.601 125.6 627.701 125.6 632.801C125.6 637.901 121.5 642.101 116.4 642.101ZM116.4 627.901C113.7 627.901 111.5 630.101 111.5 632.801C111.5 635.501 113.7 637.701 116.4 637.701C119.1 637.701 121.3 635.501 121.3 632.801C121.3 630.101 119.1 627.901 116.4 627.901Z" fill="#44496B"/>
<path d="M49.4988 616.9C48.2988 616.9 47.2988 615.9 47.2988 614.7V611.6C47.2988 610.4 48.2988 609.4 49.4988 609.4C50.6988 609.4 51.6989 610.4 51.6989 611.6V614.7C51.6989 615.9 50.6988 616.9 49.4988 616.9Z" fill="#44496B"/>
<path fill-rule="evenodd" clip-rule="evenodd" d="M14.0992 563.4C6.39921 563.4 0.199219 557.2 0.199219 549.5C0.199219 541.8 6.39921 535.5 14.0992 535.5C21.7992 535.5 28.0992 541.8 28.0992 549.5C28.0992 557.2 21.7992 563.4 14.0992 563.4ZM14.0992 539.8C8.79921 539.8 4.49921 544.2 4.49921 549.5C4.49921 554.8 8.79921 559.1 14.0992 559.1C19.3992 559.1 23.7992 554.8 23.7992 549.5C23.7992 544.2 19.3992 539.8 14.0992 539.8Z" fill="#44496B"/>
<path fill-rule="evenodd" clip-rule="evenodd" d="M126.6 585.5C120.2 585.5 115 580.2 115 573.8C115 567.4 120.2 562.2 126.6 562.2C133 562.2 138.2 567.4 138.2 573.8C138.2 580.2 133 585.5 126.6 585.5ZM126.6 566.6C122.6 566.6 119.3 569.8 119.3 573.8C119.3 577.8 122.6 581.1 126.6 581.1C130.6 581.1 133.9 577.8 133.9 573.8C133.9 569.8 130.6 566.6 126.6 566.6Z" fill="#44496B"/>
<path fill-rule="evenodd" clip-rule="evenodd" d="M257.9 146.8C257.9 172 237.5 192.5 212.3 192.5C187.1 192.5 166.6 172 166.6 146.8C166.6 121.7 187.1 101.2 212.3 101.2C237.5 101.2 257.9 121.7 257.9 146.8ZM237.4 146.8C237.4 132.9 226.2 121.7 212.3 121.7C198.4 121.7 187.1 132.9 187.1 146.8C187.1 160.7 198.4 172 212.3 172C226.2 172 237.4 160.7 237.4 146.8Z" fill="#FFCD09"/>
<path fill-rule="evenodd" clip-rule="evenodd" d="M1258 266.5C1258 283 1244.6 296.4 1228.1 296.4C1211.6 296.4 1198.3 283 1198.3 266.5C1198.3 250 1211.6 236.7 1228.1 236.7C1244.6 236.7 1258 250 1258 266.5ZM1244.6 266.5C1244.6 257.4 1237.2 250.1 1228.1 250.1C1219 250.1 1211.7 257.4 1211.7 266.5C1211.7 275.6 1219 283 1228.1 283C1237.2 283 1244.6 275.6 1244.6 266.5Z" fill="#FFCD09"/>
<path d="M504.099 35.5002C504.099 55.1002 488.299 70.9002 468.699 70.9002C449.199 70.9002 433.299 55.1002 433.299 35.5002C433.299 16.0002 449.199 0.200195 468.699 0.200195C488.299 0.200195 504.099 16.0002 504.099 35.5002Z" fill="#FFCD09"/>
<path d="M1324.9 517.5C1324.9 529.5 1315.2 539.2 1303.2 539.2C1291.2 539.2 1281.4 529.5 1281.4 517.5C1281.4 505.5 1291.2 495.7 1303.2 495.7C1315.2 495.7 1324.9 505.5 1324.9 517.5Z" fill="#FFCD09"/>
<path d="M939.6 118.801C939.6 130.801 929.8 140.501 917.8 140.501C905.8 140.501 896.1 130.801 896.1 118.801C896.1 106.801 905.8 97.1006 917.8 97.1006C929.8 97.1006 939.6 106.801 939.6 118.801Z" fill="#FFCD09"/>
<path d="M1044.6 904.3L1034.4 911.5C1033.8 912.2 1034.3 913.5 1035.1 914C1036 914.4 1037.1 914.4 1038 914.4C1048.2 913.9 1058.6 913.4 1067.8 909.3C1076.8 905.3 1084 898.3 1091 891.5C1085 892.3 1079 893.1 1073 893.9C1062.8 895.2 1051.8 897 1044.6 904.3Z" fill="#44496B"/>
<path d="M1093.3 817.4C1091 824.6 1090.3 832.1 1090.2 839.7C1081 855.9 1069 870.2 1055.7 883.6C1057 879.6 1057.8 875.6 1059 871.7C1061.4 863.8 1065.1 856.5 1067.3 848.6C1069.5 840.7 1070 831.9 1066.1 824.7C1061.9 828.1 1057.6 831.6 1054.1 835.9C1050.7 840.2 1048.1 845.4 1047.8 850.9C1047.6 855.2 1048.9 859.5 1049.7 863.8C1051.3 872.7 1050.9 881.9 1048.6 890.5C1039.5 899.2 1030 907.5 1020.6 915.7C1019.67 916.566 1018.7 917.4 1017.7 918.2C1019.9 914.7 1021.2 910.6 1021.7 906.4C1022.6 899.8 1021.6 893.2 1019.8 886.8C1018.1 880.2 1015.5 873.5 1016.8 866.8C1011.8 875.1 1006.6 883.9 1006.4 893.6C1006.2 903.5 1011.2 912.7 1012.9 922.5C1001.4 932.7 989.799 943.2 979.199 954.3C975.399 958.4 971.599 962.6 967.899 967C970.599 957.8 973.199 948.5 975.699 939.4C985.199 905.4 995.099 870.3 1008.9 838.3C1009.7 836.5 1010.5 834.8 1011.3 833C1020.1 827.9 1029.3 823.6 1038.9 820.3C1043.7 818.6 1048.6 817.2 1052.6 814.1C1055.4 812 1057.5 809.2 1059.5 806.4C1065.8 797.5 1070.8 787.7 1074.2 777.3C1057.7 777.6 1041.4 785.4 1030.7 798.1C1027.7 801.7 1025.1 805.7 1022.5 809.7C1036.7 782.6 1052.9 759.4 1070.8 740.2C1070.8 740.4 1070.83 740.566 1070.9 740.7C1080.2 743.5 1090.8 741.6 1098.6 735.7C1101.7 733.4 1104.5 730.5 1108.3 729.9C1095.8 730.5 1082.8 731.8 1072.4 738.6C1079.3 731.3 1086.6 724.6 1094.1 718.5C1095.3 717.5 1095.5 715.7 1094.5 714.5C1093.5 713.2 1091.7 713 1090.4 714C1088.9 715.2 1087.5 716.5 1086 717.8C1087.5 715.1 1088.7 712.3 1089.5 709.3C1092.2 699.2 1090.1 688.4 1092.6 678.3C1083.2 686.3 1075 696.5 1072.4 708.6C1071.8 711.8 1071.5 715.1 1071.3 718.4C1070.9 723.133 1070.53 727.866 1070.2 732.6C1062.33 740.6 1054.8 749.367 1047.6 758.9C1048.5 755.1 1048.7 751.1 1047.8 747.3C1045.9 738.3 1039.1 730.4 1039.9 721.2C1034.6 731.7 1035.6 744.4 1039.5 755.5C1040.7 758.8 1042.1 762.1 1042.7 765.6C1028.1 786 1015.1 809.5 1003.6 836C1000.4 843.4 997.399 850.9 994.599 858.6C993.466 854.666 992.466 850.7 991.599 846.7C992.132 841.766 992.599 836.866 992.999 832C993.199 828.7 993.399 825.3 992.799 822.1C992.099 817.9 989.999 814.1 988.099 810.4C985.966 806.333 983.799 802.3 981.599 798.3C976.599 806.2 975.499 816.3 977.599 825.4C979.499 833.7 983.899 841.2 989.399 847.6C990.299 851 990.399 854.7 990.499 858.2C990.633 861.866 990.766 865.5 990.899 869.1C983.099 891.7 976.499 915 970.099 937.8C966.299 951.4 962.399 965.4 958.299 979C932.399 1012.8 911.699 1053.8 896.599 1101.4C878.999 1156.9 870.899 1214 864.799 1267.7L855.599 1557.9C855.499 1559.5 856.799 1560.8 858.399 1560.9C858.399 1560.9 858.433 1560.9 858.499 1560.9C860.099 1560.9 861.299 1559.7 861.399 1558.1L870.599 1268.1C876.599 1215 884.699 1158.2 902.099 1103.1C916.699 1057.2 936.599 1017.5 961.299 984.6C962.199 984.3 962.899 983.6 963.199 982.7C963.332 982.3 963.466 981.933 963.599 981.6C969.866 973.4 976.499 965.633 983.499 958.3C996.199 944.9 1010.5 932.3 1024.4 920.1C1051.8 896.1 1079.9 871.4 1097.1 839.2C1101.3 834.5 1105.2 829.7 1107.2 823.8C1110.2 814.6 1107.5 803.9 1111.6 795C1102.5 799.1 1096.3 808 1093.3 817.4Z" fill="#44496B"/>
<path d="M1074.3 598.799C1081.6 591.799 1087.8 583.699 1092.7 574.799C1095.9 572.999 1099 571.099 1101.4 568.499C1107.2 562.099 1107.9 552.499 1106.5 543.899C1105.1 535.399 1102.1 527.099 1101.9 518.399C1097.2 523.699 1094.4 530.299 1091.8 536.899C1089.9 541.399 1088 546.099 1088.1 551.099C1088.2 555.899 1090.1 560.599 1089.5 565.399C1089.2 567.799 1088.3 570.099 1087.4 572.399C1078.8 587.799 1065.9 600.799 1050.3 609.299C1054.3 575.599 1051.3 543.899 1041.2 515.999C1041.4 507.599 1040.8 499.399 1037.8 491.699C1031.8 476.899 1017.1 465.999 1014.5 450.199C1013.77 458.133 1013 466.099 1012.2 474.099C1011.7 479.899 1011.1 485.899 1012.2 491.599C1014 501.499 1020.7 510.099 1029 515.799C1031.7 517.699 1034.8 519.499 1037.1 521.799C1040.4 531.699 1042.8 541.999 1044.3 552.699C1042.9 550.599 1041.4 548.499 1039.8 546.499C1033.9 538.799 1027.7 530.799 1019 526.599C1011.1 522.799 1001.8 522.399 994.7 517.299C996.8 522.799 998.9 528.399 1002.3 533.099C1007.9 540.999 1016.4 546.099 1024.7 550.999C1028.3 553.066 1031.9 555.166 1035.5 557.299C1037.3 558.399 1039 559.399 1040.5 560.899C1043.1 563.699 1044.2 567.499 1046 570.999C1046.9 589.599 1045.3 609.299 1041.2 629.599C1040.53 626.866 1039.8 624.166 1039 621.499C1037.6 617.099 1035.9 612.699 1033.2 608.899C1031.1 606.099 1028.6 603.799 1026.1 601.299C1019.9 595.199 1014.3 588.499 1009.3 581.299C1005.5 589.999 1009.1 600.199 1013.3 608.799C1015.3 612.699 1017.5 616.699 1020.7 619.699C1023.3 622.099 1026.6 623.699 1029.4 625.899C1034 629.399 1037.4 634.599 1038.9 640.199C1034 660.999 1026.5 682.299 1016.5 703.899C1016.1 704.799 1015.7 705.599 1015.3 706.399C1002.7 683.499 990.4 660.599 979.1 637.399C979.5 632.999 980.7 628.799 982.7 624.899C987.4 615.899 996 609.099 999.1 599.399C1000.5 594.899 1000.7 589.999 1000.3 585.299C999.6 573.799 996.4 562.299 997.7 550.799C992.4 557.199 987.7 563.999 983.5 571.199C981.2 575.299 979 579.599 978 584.299C977 589.299 977.5 594.499 977.9 599.599C978.7 608.899 979.3 618.399 976.6 627.299C976.3 628.199 975.9 629.199 975.7 630.199C962.7 602.799 951.2 574.799 942.4 545.499C942.333 545.166 942.233 544.833 942.1 544.499C943.3 541.499 945.9 538.699 948.7 536.899C958.9 530.299 972.8 529.699 980.8 520.699C987.3 513.399 988.4 501.999 996 495.799C983.7 496.799 971.7 500.799 961.4 507.499C958.5 509.299 955.7 511.399 953.7 514.199C951.3 517.699 950.2 521.899 948.3 525.599C946.2 529.599 943 532.999 941.1 536.999C940.833 537.533 940.6 538.066 940.4 538.599C934.9 518.999 931.1 499.699 928.9 480.899C930 476.799 932.1 472.799 934.5 469.199C938.5 463.199 943.4 457.799 946.5 451.299C950.9 442.099 951.4 431.699 951.9 421.599C948.5 429.099 941.6 434.199 936.4 440.499C932 445.699 928.9 451.899 927.1 458.399C925.9 431.699 928.3 406.199 934.2 382.399C935.933 380.599 937.667 378.766 939.4 376.899C941.4 374.799 943.5 372.599 944.8 369.899C948.3 362.799 945.7 354.299 946.7 346.399C945 348.199 942.9 349.399 940.9 350.899C935.7 354.599 931.3 359.899 929.4 366.099C928.1 370.099 928.1 374.499 929.2 378.499C926.4 389.299 924.3 400.399 922.9 411.799C922.5 410.799 922.067 409.833 921.6 408.899C916.067 397.699 910.567 386.499 905.1 375.299C898 396.899 904.7 422.299 921 438.099C920.6 455.199 921.7 472.899 924.3 490.999C921.8 482.499 918 474.599 911.3 469.099C908.3 466.699 904.8 464.799 901.5 462.899C893.3 458.299 885.5 453.199 877.9 447.599C883.4 463.499 891.4 479.799 906.1 487.999C909 489.599 912.2 490.899 915 492.699C919.3 495.299 922.8 498.999 926.2 502.799C928.8 517.399 932.3 532.199 936.8 547.099C941.8 563.699 947.6 579.699 954 595.499C951 591.899 947.4 588.999 943.1 587.099C938.5 585.199 933.3 584.499 928.5 583.099C922 581.199 915.9 577.699 911 573.099C910.6 581.999 913.2 591.999 920.9 596.599C923.3 597.999 925.9 598.799 928.5 599.499C933.167 600.833 937.833 602.133 942.5 603.399C949.2 605.099 956.6 607.299 961.1 612.299C976.2 646.599 993.9 679.599 1012.2 712.799C996.9 744.399 978.1 774.599 959.7 803.899C959.433 804.366 959.167 804.833 958.9 805.299C958.5 789.399 957.6 773.399 956.4 757.499C958 751.699 960 745.899 963.3 740.899C963.433 740.766 963.533 740.633 963.6 740.499C975.8 736.199 985 724.199 986 711.299C986.6 703.999 984.8 696.399 987 689.399C980.5 693.199 973.8 697.399 970.1 703.899C964.8 713.399 967 725.499 964.1 735.799C962.367 738.266 960.633 740.733 958.9 743.199C958.2 744.099 957.5 744.999 957.1 745.999C956.7 747.299 956.5 748.699 956.4 749.999C956.333 751.266 956.233 752.533 956.1 753.799C955.033 740.133 953.667 726.499 952 712.899C952.4 706.199 954.4 699.399 955.4 692.699C957.3 679.799 955.6 666.299 950.5 654.299C949.3 662.199 946.2 669.799 941.6 676.299C938.6 680.499 934.8 684.499 934 689.599C933.3 693.999 934.9 698.399 937 702.399C939.5 707.099 942.7 711.399 946.4 715.199C950.3 747.299 952.6 779.799 953.3 812.099C953.3 812.633 953.433 813.133 953.7 813.599C940.9 834.099 928 855.199 916.5 876.699C910.233 888.433 904.367 900.333 898.9 912.399C903 887.199 903.3 866.499 901.2 847.599C903 834.299 905.4 820.799 913 809.899C916.5 804.899 921 800.499 922.9 794.799C924.2 790.699 924.1 786.299 924 781.999C923.667 771.266 923.3 760.533 922.9 749.799C920.9 754.899 918.1 759.799 914.6 763.999C912.2 766.999 909.6 769.599 907.4 772.699C902.5 779.499 900.3 787.699 898.1 795.699C896.8 800.699 895.4 805.799 894.9 810.899C894.8 811.699 894.8 812.499 894.7 813.299C891.8 801.899 888.3 790.399 884.5 778.099C877.9 747.399 878.1 717.499 885.1 682.699C889 680.099 893.6 678.399 898.2 677.299C904.9 675.699 911.8 674.999 918.3 672.599C923.3 670.699 927.8 667.899 932.3 665.199C936.8 662.399 941.4 659.399 943.4 654.599C933.9 656.499 924.4 650.399 914.7 651.099C908.7 651.499 903 654.499 898.6 658.599C894.1 662.599 890.7 667.699 887.7 672.999C887.4 673.399 887.1 673.899 886.8 674.399L887.2 673.099C893.4 645.299 899.7 616.699 896.4 589.099C897.5 585.699 898.8 582.399 899.7 578.999C903.4 565.099 901.1 550.099 896.5 536.499C894 529.199 890.9 521.899 891.1 514.299C883 523.999 876.9 535.399 873.4 547.499C872.4 551.099 871.6 554.799 871.9 558.499C872.2 562.699 873.9 566.699 875.7 570.499C880.3 580.599 885.6 590.399 891.4 599.899C892.3 623.499 886.8 647.899 881.5 671.799L880.9 674.599C875 700.699 872.9 724.099 874.3 746.899C860 706.199 843.7 671.199 823.4 628.799C830.7 600.699 836.5 572.199 841 543.699C846.733 540.433 852.5 537.199 858.3 533.999C867.9 528.699 878.2 522.499 882 512.099C884.6 504.799 883.6 495.999 888 489.599C868.5 498.699 852.3 514.499 842.5 533.699C846.5 506.399 849.1 479.099 850.5 451.599C853.9 446.199 857.5 440.899 861.9 436.299C866.1 431.899 871 427.999 874.5 423.099C882.6 411.899 882.7 397.099 882.5 383.299C879.367 386.166 876.2 388.999 873 391.799C869 395.399 865.1 398.899 861.8 403.099C856.8 409.399 853.6 416.699 851.5 424.499C852 397.099 851.2 369.699 849.2 342.199C851.3 340.399 853.7 338.899 854.7 334.999C856.1 328.899 855.3 322.399 853.5 316.399C851.6 310.399 848.6 304.899 845.7 299.299C837.1 313.199 836.4 331.499 843.7 346.099C844.3 354.766 844.767 363.466 845.1 372.199C844.967 371.799 844.867 371.399 844.8 370.999C843.7 367.699 842 364.799 840.2 361.899C836.133 355.099 832.033 348.266 827.9 341.399C824.9 336.499 821.9 331.499 817.8 327.499C817.7 335.099 817.5 342.799 818.8 350.299C820.1 357.799 822.9 365.299 827.9 370.999C830.4 373.699 833.3 375.999 836.2 378.199C839.2 380.599 842.233 382.966 845.3 385.299C845.367 384.833 845.433 384.366 845.5 383.899C846.3 413.299 845.6 442.599 843.4 471.799C842.3 469.099 840.7 466.499 839 464.199C835.4 459.399 831 455.099 827.8 449.999C823.1 442.199 821.6 432.999 818.6 424.299C815.6 415.699 810.2 406.999 801.6 404.099C799.4 416.599 798.1 429.399 800.8 441.799C803.4 454.099 810.4 465.999 821.5 472.099C828.1 475.799 835.7 477.199 842.8 479.899C838.9 527.399 831 574.599 819.3 621.199C809.8 604.799 801.4 587.599 794.2 569.899C795 560.799 798.5 551.999 804.2 544.999C808 540.299 812.9 536.099 814.6 530.299C815.4 527.599 815.3 524.699 815.2 521.799C814.7 506.399 811.8 491.099 806.8 476.499C791.2 492.599 784.7 517.199 790.4 538.999C791.5 543.199 793 547.699 791.8 551.899C791.3 553.799 790.2 555.499 789.2 557.299C775.6 520.299 767 481.299 763.9 442.099C766 433.499 770.5 425.499 776.7 419.299C783.1 412.899 791.6 407.999 795 399.599C796.9 395.099 797.1 390.099 797.2 385.199C797.333 380.066 797.467 374.933 797.6 369.799C791 378.799 780.7 384.499 773.7 393.199C767.2 401.199 764 410.999 762.7 421.299C761.8 392.899 763.8 364.599 768.8 337.199C769.1 336.499 769.3 335.899 769.7 335.299C772.2 330.199 776.3 326.099 779.1 321.199C785.7 309.699 785 295.599 783.8 282.399C782.2 287.199 777.5 290.099 773.5 293.299C767.4 298.299 762.7 305.199 761 312.999C759.6 319.599 760.4 326.799 763.7 332.599C761.2 345.699 759.4 358.899 758.3 372.299C756.7 366.299 753.1 360.699 748.3 356.699C740.9 350.499 731.1 347.799 721.5 347.999C720.6 355.999 725.7 363.599 732.2 368.399C738.7 373.199 746.5 375.799 754 378.899C755.3 379.399 756.5 379.999 757.6 380.899C754.9 422.099 758.4 464.199 767.7 505.099C767.567 504.899 767.467 504.733 767.4 504.599C763.2 499.399 758 495.199 754.4 489.599C751.8 485.799 750.2 481.399 748.3 477.199C739 457.199 721.6 441.099 701 433.399C705.3 442.899 707.1 453.399 709.8 463.499C712.5 473.599 716.5 483.799 724.2 490.899C729.9 495.999 737.1 499.099 744.3 501.399C747.9 502.599 751.6 503.599 754.8 505.699C761.6 510.099 765.2 518.399 772.1 522.599C776.4 538.599 781.7 554.399 787.8 569.699C788.267 571.366 788.9 572.933 789.7 574.399C797.6 593.399 806.8 611.699 817.3 629.199C817.3 629.466 817.367 629.733 817.5 629.999C829.2 654.399 839.6 676.299 849 698.199C847.7 696.799 846.4 695.399 844.9 694.199C832.5 683.499 814.9 678.999 805.1 665.799C809.6 681.399 814.4 697.799 826.1 709.099C830.7 713.599 836.3 717.099 842.3 719.299C847.3 721.099 852.6 722.099 857.4 724.299C858.4 724.699 859.367 725.199 860.3 725.799C866.3 741.199 871.9 756.999 877.2 774.099L878.5 778.499C878.633 778.833 878.767 779.199 878.9 779.599C879.3 781.466 879.7 783.333 880.1 785.199C880.3 785.799 880.6 786.299 881.1 786.699C888.7 811.499 894.7 832.699 896.3 857.099C891.7 846.499 885 837.099 878.7 830.499C871.5 823.099 863.5 816.499 855.7 810.099C849.7 805.299 843.6 800.299 837.9 794.899C831.9 789.166 826.967 783.433 823.1 777.699C822.3 775.199 821.5 772.699 821.5 770.299C821.4 764.399 825.2 759.199 826 753.399C826.9 746.599 823.4 739.899 819.8 733.999C815.8 727.466 811.5 721.133 806.9 714.999C802.6 709.199 797.3 703.199 790.2 701.999C793.5 708.899 795.6 716.299 796.4 723.899C797.5 734.799 796 745.899 798.1 756.699C801 771.499 810.9 784.699 824.3 791.599C824.633 790.999 824.867 790.366 825 789.699C827.667 792.899 830.633 796.033 833.9 799.099C839.7 804.599 846 809.699 852 814.599C859.7 820.899 867.6 827.399 874.5 834.599C885.1 845.599 897 864.999 896 883.199C895.9 883.799 896.1 884.299 896.3 884.699C895.4 899.599 892.9 916.099 888.4 935.399C888.267 935.866 888.267 936.299 888.4 936.699C856.2 1016 840.4 1101.4 842.2 1187.1L831.7 1560C831.7 1561.6 832.9 1562.9 834.5 1563C834.567 1563 834.6 1563 834.6 1563C836.2 1563 837.5 1561.7 837.5 1560.2L848 1187.2C845.8 1084.9 869 983.199 915.1 891.999C922.5 887.399 930 883.099 938.3 880.599C942.9 879.099 947.7 878.299 952 875.999C959.9 871.799 964.7 863.599 969 855.799C954.4 856.199 939.9 860.699 927.5 868.599C939.3 847.599 952.2 826.999 964.7 806.999C984.8 774.799 1005.6 741.499 1021.8 706.399C1025.2 698.999 1028.3 691.666 1031.1 684.399C1037.4 680.399 1044.2 677.599 1051.4 675.899C1057.2 674.499 1063.2 673.899 1068.5 671.199C1072.4 669.199 1075.6 666.299 1078.6 663.299C1088.7 653.499 1097.8 642.699 1105.7 631.099C1088.4 633.799 1070.7 638.999 1058.4 651.399C1053.5 656.399 1049.6 662.399 1044.3 666.999C1041.2 669.699 1037.7 671.899 1034.7 674.699C1041.7 654.799 1046.7 635.299 1049.4 616.299C1052.8 614.633 1056.07 612.799 1059.2 610.799C1066.5 609.899 1073.9 610.199 1081.1 611.599C1085.9 612.599 1090.8 613.999 1095.7 613.599C1104.6 612.699 1111.8 605.699 1116.9 598.199C1119.1 594.999 1121.5 591.299 1125.3 590.299C1108 588.099 1090 591.199 1074.3 598.799Z" fill="#44496B"/>
<path d="M809.499 876C815.199 871.5 821.999 868.7 827.099 863.5C836.099 854.3 837.299 839.9 835.999 827C830.999 834.4 822.099 838.2 814.999 843.6C805.499 850.9 799.099 861.5 796.199 873.1C792.499 848.1 787.699 823.1 781.599 798.2L781.099 793.6C780.799 793 780.399 792.4 780.099 791.8C774.499 769.5 767.899 747.2 760.499 725.3C758.699 720.033 756.833 714.766 754.899 709.5C756.699 701.4 760.799 693.9 766.799 688.2C769.999 685.1 773.799 682.5 776.899 679.1C785.999 668.9 786.599 653.7 785.399 640.1C784.299 626.9 781.999 613.8 779.699 600.8C768.599 607.9 760.399 619.5 757.299 632.4C755.799 638.7 755.599 645.3 755.499 651.8C755.499 657.733 755.666 663.633 755.999 669.5C756.199 672.7 756.499 675.8 755.899 678.8C754.899 683.4 752.199 687.3 750.499 691.6C750.099 692.5 749.799 693.4 749.599 694.3C749.199 693.4 748.699 692.5 748.299 691.5C742.399 676.1 736.299 660.8 730.299 645.9C722.099 625.3 713.699 604.3 705.999 583C706.799 578.1 710.299 573.8 714.299 570.5C718.899 566.7 724.299 563.8 728.499 559.5C734.999 552.7 737.699 542.7 736.099 533.5C734.399 523 727.599 513.9 725.299 503.5C718.299 509.1 715.599 518.4 714.199 527.2C712.899 536.1 712.499 545.3 708.499 553.3C707.099 556.3 705.099 559.1 703.999 562.2C702.499 566.4 702.499 570.9 703.199 575.3C696.999 557.6 691.299 539.6 686.699 521.5C680.299 496.7 674.999 467 674.199 435.7C675.199 431.3 677.499 427.1 680.899 424.1C684.399 420.9 688.799 418.9 692.699 416.1C699.299 411.2 703.899 403.7 705.299 395.6C706.299 390.1 705.799 384.1 708.399 379.1C702.099 384.3 693.599 386.4 687.699 392C683.499 395.9 680.999 401.4 678.699 406.7C677.099 410.1 675.599 413.8 674.399 417.5C675.399 391.8 679.799 365.3 689.699 340C695.299 333.5 703.599 329 711.699 325.6C713.699 324.8 715.899 323.9 717.599 322.5C719.499 320.9 720.699 318.7 721.799 316.5C726.099 308.1 728.999 299.1 730.299 289.8C731.199 283.7 731.399 277.4 733.799 271.8C722.099 276 712.599 284.6 703.499 293C699.799 296.4 696.099 299.9 693.399 304.1C690.699 308.5 689.199 313.5 687.999 318.5C686.733 324.033 685.833 329.666 685.299 335.4C667.899 378.5 665.899 424.6 670.499 465.8C648.499 438.3 629.699 407.3 615.299 375C619.399 371 624.199 367.5 626.599 362.4C629.299 356.7 628.499 350.1 627.299 344C626.099 337.9 624.499 331.7 625.599 325.6C620.933 332.133 616.633 338.933 612.699 346C611.599 347.9 610.499 349.8 609.999 351.9C609.099 354.9 609.299 358 609.499 361.1C604.799 349.6 600.799 337.9 597.299 326.3C597.799 321.9 598.199 317.4 598.399 313C598.599 308.7 598.699 304.3 597.899 300.1C595.699 287.5 586.799 277.2 578.299 267.6C572.399 283.4 575.399 302.3 585.899 315.6C586.999 317 588.199 318.4 589.399 319.7C594.699 339.3 601.699 358.9 610.299 378.1C610.366 379.033 610.433 380 610.499 381C610.699 380.6 610.899 380.233 611.099 379.9C611.699 381.1 612.266 382.3 612.799 383.5C606.899 380.4 599.899 378.8 596.599 373.1C597.799 383 600.699 392.6 605.099 401.4C608.099 407.6 611.999 413.6 617.799 417.3C622.799 420.4 628.699 421.7 634.199 423.8C645.299 442.3 657.699 459.8 671.299 476C671.433 476.2 671.599 476.366 671.799 476.5C674.099 493.1 677.399 508.8 680.999 523C691.999 565.9 708.799 607.6 724.899 648C725.366 649.133 725.833 650.266 726.299 651.4C703.299 615.5 674.599 585.8 642.399 565C636.466 554.2 630.599 543.366 624.799 532.5C625.199 523 627.399 513.5 631.399 504.8C633.799 499.5 636.799 494.5 637.699 488.8C638.399 484.7 637.899 480.6 637.199 476.6C635.699 468.1 633.099 459.8 629.699 451.9C618.399 469.4 613.599 491 616.299 511.6C616.599 514 617.099 516.3 617.499 518.7C605.566 496.233 593.833 473.633 582.299 450.9C582.599 442.7 585.899 434.3 587.499 426.1C590.699 409.8 586.999 392.2 577.399 378.5C572.799 371.9 566.699 366.1 563.899 358.5C568.299 379.1 564.299 400.8 567.399 421.4C554.699 396.1 542.299 370.7 530.199 345.2C530.199 340.866 530.166 336.5 530.099 332.1C529.999 327.6 529.799 322.9 528.099 318.8C526.899 316.1 525.199 313.7 523.499 311.4C517.566 303.533 511.399 295.833 504.999 288.3C503.533 295.366 502.033 302.466 500.499 309.6C499.999 312.3 499.399 315.1 499.699 317.9C499.999 321.4 501.599 324.6 503.299 327.7C509.899 339.2 518.899 349.3 529.499 357.3C536.566 372.033 543.733 386.766 550.999 401.5C550.599 401.1 550.199 400.8 549.699 400.4C545.499 397.7 540.299 397.2 535.299 396.6C523.799 395.1 512.499 392.3 501.599 388.4C503.799 399.8 512.399 410.5 523.899 412.1C529.799 412.8 535.699 411.2 541.599 411.7C547.999 412.3 553.799 415.3 559.399 418.5C583.099 466 607.699 513.2 632.799 559.6C601.699 548.1 572.999 532.6 547.099 513.6C539.599 495.6 536.899 475 523.799 460.7C516.699 453 506.699 447.4 502.599 437.7C505.999 445.2 504.199 453.9 504.099 462.2C503.999 467.6 504.799 473 506.299 478.2C479.999 451.4 457.899 420.2 440.799 385.2C441.599 379.9 441.999 374.6 441.499 369.4C440.699 360.7 437.399 352 431.099 346C425.299 340.5 416.899 337.1 413.399 329.9C412.799 343.1 412.599 357.6 420.999 367.9C423.799 371.3 427.299 374 430.599 376.9C432.999 382.366 435.566 387.733 438.299 393L438.799 395.2C438.866 395 438.933 394.766 438.999 394.5C458.099 431.8 482.999 464.7 512.499 492.4C516.899 499.4 522.699 505.6 529.699 510.1C533.299 512.4 537.199 514.4 541.099 516.3C568.699 537 599.499 553.7 632.899 565.8C633.099 566 633.299 566.166 633.499 566.3C634.999 567.2 636.599 568.2 638.099 569.2C638.499 569.7 638.999 570 639.599 570.2C640.933 571.066 642.266 571.933 643.599 572.8C622.999 570.4 601.799 575.5 580.999 573.8C586.399 584.3 597.299 591.9 609.099 593.4C619.999 594.8 630.799 591.2 641.599 589.4C651.199 587.8 661.999 588 669.799 593.4C690.199 611.6 708.599 633.7 723.999 658.7C721.499 656.7 718.599 654.9 715.899 653.3C708.199 648.5 700.399 643.7 691.999 640.2C685.999 637.7 679.699 636 673.699 633.5C668.099 631.2 662.699 628.3 657.299 625.4C651.099 622.133 644.933 618.833 638.799 615.5C642.666 623.033 646.533 630.566 650.399 638.1C654.999 647.1 660.399 656.8 669.899 660.5C674.399 662.2 679.299 662.4 684.199 662.7C699.999 663.7 715.699 666.3 730.999 670.5C735.199 678.033 739.166 685.8 742.899 693.8C747.099 704.9 751.199 716 754.999 727.1C760.599 743.7 765.699 760.4 770.299 777.2C763.599 769.1 755.399 762.3 746.199 757.1C747.099 770.7 755.199 783.6 766.899 790.3C769.399 791.7 771.899 792.8 773.999 794.7C774.399 795.1 774.766 795.5 775.099 795.9C787.199 844.9 794.799 894.6 797.599 943.2C787.199 880.2 766.799 825.2 736.499 778.9C728.299 766.5 719.399 754.6 709.899 743.2C707.899 737.5 706.399 731.7 706.699 725.7C706.999 719 709.699 712.4 709.099 705.7C707.999 693.1 695.699 683.6 694.799 671C690.099 674.7 687.599 680.5 686.699 686.4C685.899 692.2 686.599 698.2 687.599 704C688.399 709.466 689.399 714.9 690.599 720.3C690.733 720.9 690.866 721.466 690.999 722C661.199 690.6 627.299 662.8 593.199 636C587.599 627.4 579.899 620 576.199 610.4C573.999 604.5 573.399 598.1 571.199 592.3C568.599 585.2 563.899 579.2 559.199 573.4C554.466 567.333 549.733 561.3 544.999 555.3C547.399 558.4 547.299 562.7 546.999 566.6C545.999 577.8 544.299 589.3 546.899 600C543.833 597.6 540.766 595.2 537.699 592.8C534.899 590.533 532.099 588.266 529.299 586C528.899 585.5 528.499 585.1 527.899 584.9C510.399 570.8 492.799 555.7 475.799 539.7C475.599 536.2 475.999 532.7 476.999 529.4C478.499 524.5 481.399 520 483.099 515.2C485.399 508.7 485.699 501.6 483.999 495C482.699 490 480.399 485.4 477.999 480.8C474.933 474.866 471.866 468.966 468.799 463.1C467.666 472.633 466.499 482.2 465.299 491.8C464.499 498.4 463.699 505 464.499 511.6C465.099 517.6 467.099 523.3 467.699 529.3C467.833 530.233 467.933 531.166 467.999 532.1C455.899 520.2 444.199 507.7 433.399 494.6C431.399 486.9 429.899 479 431.899 471.4C432.799 467.8 434.499 464.4 435.299 460.8C436.099 457.3 435.999 453.7 435.699 450.2C434.599 439.6 430.899 429.3 425.099 420.4C421.299 414.6 416.299 408.8 416.099 401.8C412.999 412.2 417.199 423.3 417.199 434.2C417.199 439.5 416.199 444.8 416.199 450.1C416.199 460.3 419.799 470.2 423.299 479.8C423.833 481.2 424.366 482.633 424.899 484.1C407.899 462.1 393.199 438.5 382.299 412.9C382.399 412.3 382.499 411.7 382.599 409.1C382.699 404.9 382.899 400.6 382.399 396.4C381.599 389.8 379.099 383.4 375.199 378C370.099 370.9 362.399 365.1 360.599 356.6C356.199 367.3 355.899 379.7 359.799 390.7C362.899 399.4 368.599 407 375.899 412.6C388.199 442.4 405.499 469.5 425.699 494.5C412.599 489.3 397.399 488.7 384.899 481.7C381.699 480 378.599 477.7 374.999 477.5C378.599 484.1 383.399 490.1 388.999 495C390.599 496.4 392.299 497.7 394.199 498.7C399.099 501.1 404.899 500.7 410.399 499.8C416.299 498.9 422.399 497.5 428.399 497.7C454.599 529.5 485.499 557.6 516.199 582.8C487.699 577.9 461.799 572.6 437.299 566.7C435.799 564.5 434.599 562.1 433.699 559.7C432.599 556.5 432.099 553.3 430.899 550.2C429.399 545.9 426.799 542 423.299 539C420.499 536.5 417.099 534.6 414.199 532.3C411.199 529.9 408.499 526.9 407.599 523.2C408.799 530 409.499 536.8 411.199 543.4C412.899 550.1 415.699 556.6 420.499 561.5C420.899 561.9 421.333 562.3 421.799 562.7C405.199 558.3 389.199 553.6 373.299 548.4C371.699 545.5 371.299 541.9 371.499 538.5C371.699 534 372.999 529.7 373.799 525.3C375.299 516.5 374.399 506.9 369.399 499.6C364.999 493.1 357.599 488.4 355.699 480.8C353.599 489.3 353.799 498.2 353.999 507C354.199 512.866 354.366 518.766 354.499 524.7C354.599 528.1 354.699 531.6 355.899 534.8C356.899 537.6 358.899 540.1 360.699 542.5C361.299 543.3 361.933 544.066 362.599 544.8C355.733 542.466 348.866 540 341.999 537.4C341.933 537.333 341.899 537.266 341.899 537.2C324.599 518.8 310.999 497.6 301.099 474.4C301.299 472.266 301.499 470.166 301.699 468.1C301.899 464.9 302.199 461.7 301.599 458.6C300.999 455.5 299.499 452.6 298.099 449.7C294.366 442.233 290.599 434.766 286.799 427.3C281.899 436.7 280.399 447.9 282.899 458.2C285.199 467.7 290.699 476.4 298.299 482.5C307.399 502.2 319.099 520.4 333.499 536.6C311.099 537.7 286.699 538.2 264.199 532.1C260.599 529.3 257.199 525.8 252.799 524.2C245.999 521.7 238.399 524.1 231.199 523.1C232.799 529.4 237.199 535 242.999 538.1C248.799 541.1 255.899 541.6 261.999 539.4C262.866 539 263.766 538.6 264.699 538.2C279.399 542 294.699 543.1 309.799 543.1C319.499 543.1 328.999 542.7 338.199 542.2C381.199 558.3 423.499 570.4 472.899 580.6C472.766 580.6 472.633 580.633 472.499 580.7C471.499 581.1 470.699 582 469.899 582.7C464.499 587.3 456.599 587.2 449.399 587.5C437.099 588 424.199 590.5 414.599 598.3C409.899 602.1 405.999 607.2 400.399 609.5C418.899 616.3 440.699 612.9 456.399 600.9C464.499 594.8 471.299 586.3 480.299 582.1C494.599 585 509.599 587.7 525.299 590.3C528.233 592.633 531.166 594.966 534.099 597.3C539.833 601.833 545.566 606.333 551.299 610.8C552.233 612.466 553.233 614.1 554.299 615.7C556.199 618.8 558.299 621.7 560.699 624.4C568.499 633 579.499 637.7 590.599 641.4C599.199 648.1 607.799 654.9 616.299 661.9C577.999 667.2 538.999 667.2 500.699 662C498.399 659.8 496.199 657.4 494.499 654.8C492.099 650.9 490.599 646.6 488.699 642.4C482.499 629.4 471.299 618.7 457.999 613.1C462.199 617.2 460.699 624.1 460.899 629.9C461.299 640.8 468.999 650.3 478.199 656.1C480.099 657.3 481.999 658.4 483.999 659.4C446.299 652.7 409.399 641 374.799 624.4C374.399 624 373.999 623.6 373.599 623.2C369.699 618.7 368.599 612.1 364.299 608C361.799 605.6 358.399 604.3 355.099 603.1C339.799 597.3 324.099 591.6 307.699 590.9C317.833 600.566 328.299 609.866 339.099 618.8C341.999 621.2 344.999 623.6 348.199 625.5C355.999 630.2 365.399 631.9 374.399 630.7C412.399 648.6 452.999 660.8 494.499 666.9C480.199 672.6 465.299 676.8 450.099 679.5C442.799 677.6 435.499 675.2 430.699 669.6C429.199 667.9 427.999 665.9 426.399 664.2C421.799 659.2 414.199 657.2 407.799 659.3C408.099 660.9 409.099 662.3 410.099 663.7C415.099 670.7 420.499 678 428.599 681C429.666 681.4 430.766 681.733 431.899 682C422.566 682.933 413.199 683.3 403.799 683.1C399.199 681.6 394.699 679.6 389.999 678.6C374.699 675.1 359.099 681.7 344.799 688.1C354.066 690.633 363.333 693.133 372.599 695.6C377.299 696.9 381.999 698.2 386.899 698.5C396.399 699.1 406.099 695.4 412.999 688.9C439.199 688.4 465.299 683.7 489.999 674.9C488.999 675.566 488.033 676.266 487.099 677C482.399 680.7 478.599 685.2 474.799 689.8C467.799 698.4 460.999 707.2 454.399 716.2C462.066 715 469.699 713.833 477.299 712.7C480.899 712.2 484.499 711.6 487.799 710C497.599 705.2 500.599 693.1 506.199 683.7C509.399 678.3 513.699 673.6 518.699 669.9C531.899 671.1 545.099 671.7 558.399 671.7C579.399 671.7 600.499 670.1 621.299 667C621.633 666.933 621.933 666.833 622.199 666.7C655.799 694.4 687.799 724 714.299 758C700.799 750.8 684.399 746 665.399 743.8C662.799 740.4 658.899 737.6 657.299 733.5C656.299 731.2 656.299 728.7 655.899 726.2C654.699 719.1 650.599 712.4 644.799 708C637.199 702.4 626.399 700.1 622.299 691.6C625.599 708 634.899 722.5 644.499 736.2C645.699 737.9 646.999 739.7 648.699 741C649.299 741.5 649.999 741.9 650.799 742.2C632.699 740.2 614.699 737.2 599.599 728C599.099 727.6 598.499 727.5 597.899 727.5C589.099 720.3 579.299 714.3 568.199 711.6C559.899 709.6 550.999 709.6 542.599 711.7C546.599 716.9 551.699 721.1 556.699 725.2C560.899 728.7 565.199 732.3 570.299 734.5C580.699 739 592.499 737.1 603.999 736.9C621.199 745 640.699 747 659.599 749L661.899 749.2C662.033 749.2 662.166 749.233 662.299 749.3C661.799 749.3 661.399 749.4 660.899 749.5C654.099 751.2 647.899 754.7 641.399 757.4C633.199 760.7 624.499 762.7 615.699 763.4C630.099 764.7 643.799 773.9 657.999 771.4C667.399 769.8 675.199 763.3 681.599 756.4C682.699 755.3 683.699 754.1 684.799 753.1C700.099 756.8 712.899 762.7 723.299 770.5C723.499 770.633 723.699 770.766 723.899 770.9C726.566 774.566 729.133 778.3 731.599 782.1C739.399 793.9 746.499 806.3 752.899 819.3C746.099 814.2 737.699 811.4 729.499 809.2C721.099 806.9 712.599 805.1 704.799 801.5C708.899 808.7 713.499 815.5 718.699 821.9C722.199 826.3 726.299 830.7 731.699 832.5C736.199 834 741.199 833.5 745.999 833.9C751.599 834.3 757.199 836.2 761.999 839.2C783.799 890.2 796.299 949.1 799.199 1015.2C799.899 1030.4 800.599 1045.2 801.199 1059.9C804.199 1125.2 807.099 1186.9 808.399 1263.2L797.099 1565.4C796.999 1567 798.299 1568.3 799.899 1568.4C799.899 1568.4 799.933 1568.4 799.999 1568.4C801.499 1568.4 802.799 1567.2 802.899 1565.6L814.199 1263.3C812.899 1186.7 809.999 1125 806.999 1059.6C806.299 1044.9 805.699 1030.1 804.999 1014.9C804.733 1009.03 804.399 1003.2 803.999 997.4C804.399 996.9 804.599 996.4 804.599 995.7C805.099 961 802.999 925.4 798.499 889.6C801.099 884.3 804.899 879.6 809.499 876Z" fill="#44496B"/>
<path d="M666.4 289.899C666.4 297.099 660.6 302.899 653.5 302.899C646.3 302.899 640.5 297.099 640.5 289.899C640.5 282.699 646.3 276.899 653.5 276.899C660.6 276.899 666.4 282.699 666.4 289.899Z" fill="#E9B134"/>
<path d="M659.2 325.7C659.2 329.7 655.9 333 651.9 333C647.9 333 644.6 329.7 644.6 325.7C644.6 321.7 647.9 318.5 651.9 318.5C655.9 318.5 659.2 321.7 659.2 325.7Z" fill="#E9B134"/>
<path d="M660.199 356.4C660.199 360.1 657.199 363.1 653.499 363.1C649.699 363.1 646.699 360.1 646.699 356.4C646.699 352.6 649.699 349.6 653.499 349.6C657.199 349.6 660.199 352.6 660.199 356.4Z" fill="#E9B134"/>
<path d="M992.399 408.3C992.399 417.7 984.699 425.4 975.299 425.4C965.799 425.4 958.199 417.7 958.199 408.3C958.199 398.8 965.799 391.1 975.299 391.1C984.699 391.1 992.399 398.8 992.399 408.3Z" fill="#E9B134"/>
<path d="M985.1 448.699C985.1 453.599 981.2 457.599 976.3 457.599C971.4 457.599 967.5 453.599 967.5 448.699C967.5 443.899 971.4 439.899 976.3 439.899C981.2 439.899 985.1 443.899 985.1 448.699Z" fill="#E9B134"/>
<path d="M973.699 477.3C973.699 480.2 971.399 482.5 968.499 482.5C965.699 482.5 963.299 480.2 963.299 477.3C963.299 474.4 965.699 472.1 968.499 472.1C971.399 472.1 973.699 474.4 973.699 477.3Z" fill="#E9B134"/>
<path d="M1135.7 659C1135.7 665.9 1130.1 671.4 1123.2 671.4C1116.3 671.4 1110.8 665.9 1110.8 659C1110.8 652.1 1116.3 646.5 1123.2 646.5C1130.1 646.5 1135.7 652.1 1135.7 659Z" fill="#E9B134"/>
<path d="M1132.6 696.3C1132.6 701.5 1128.4 705.7 1123.2 705.7C1118.1 705.7 1113.9 701.5 1113.9 696.3C1113.9 691.2 1118.1 687 1123.2 687C1128.4 687 1132.6 691.2 1132.6 696.3Z" fill="#E9B134"/>
<path d="M1127.4 733.7C1127.4 737.7 1124.1 741 1120.1 741C1116.1 741 1112.8 737.7 1112.8 733.7C1112.8 729.7 1116.1 726.5 1120.1 726.5C1124.1 726.5 1127.4 729.7 1127.4 733.7Z" fill="#E9B134"/>
<path d="M1100.4 772.1C1100.4 774.4 1098.5 776.3 1096.2 776.3C1093.9 776.3 1092.1 774.4 1092.1 772.1C1092.1 769.8 1093.9 768 1096.2 768C1098.5 768 1100.4 769.8 1100.4 772.1Z" fill="#E9B134"/>
<path d="M878.199 599.3C878.199 606.4 872.399 612.3 865.199 612.3C858.099 612.3 852.299 606.4 852.299 599.3C852.299 592.1 858.099 586.3 865.199 586.3C872.399 586.3 878.199 592.1 878.199 599.3Z" fill="#E9B134"/>
<path d="M866.799 637.199C866.799 640.599 863.999 643.399 860.599 643.399C857.099 643.399 854.299 640.599 854.299 637.199C854.299 633.699 857.099 630.899 860.599 630.899C863.999 630.899 866.799 633.699 866.799 637.199Z" fill="#E9B134"/>
<path d="M863.699 666.2C863.699 669.1 861.399 671.4 858.499 671.4C855.599 671.4 853.299 669.1 853.299 666.2C853.299 663.4 855.599 661 858.499 661C861.399 661 863.699 663.4 863.699 666.2Z" fill="#E9B134"/>
<path d="M922.898 982.899C922.898 989.799 917.298 995.299 910.398 995.299C903.498 995.299 897.898 989.799 897.898 982.899C897.898 975.999 903.498 970.399 910.398 970.399C917.298 970.399 922.898 975.999 922.898 982.899Z" fill="#E9B134"/>
<path d="M934.299 953.3C934.299 957 931.299 960 927.499 960C923.799 960 920.799 957 920.799 953.3C920.799 949.6 923.799 946.5 927.499 946.5C931.299 946.5 934.299 949.6 934.299 953.3Z" fill="#E9B134"/>
<path d="M943.599 925.8C943.599 928.6 941.299 931 938.399 931C935.599 931 933.199 928.6 933.199 925.8C933.199 922.9 935.599 920.6 938.399 920.6C941.299 920.6 943.599 922.9 943.599 925.8Z" fill="#E9B134"/>
<path d="M849.198 940.299C849.198 945.999 844.498 950.699 838.798 950.699C832.998 950.699 828.398 945.999 828.398 940.299C828.398 934.599 832.998 929.899 838.798 929.899C844.498 929.899 849.198 934.599 849.198 940.299Z" fill="#E9B134"/>
<path d="M855.4 904.5C855.4 907.6 852.8 910.2 849.7 910.2C846.5 910.2 844 907.6 844 904.5C844 901.3 846.5 898.8 849.7 898.8C852.8 898.8 855.4 901.3 855.4 904.5Z" fill="#E9B134"/>
<path d="M867.798 878.5C867.798 881.7 865.298 884.2 862.098 884.2C858.998 884.2 856.398 881.7 856.398 878.5C856.398 875.4 858.998 872.8 862.098 872.8C865.298 872.8 867.798 875.4 867.798 878.5Z" fill="#E9B134"/>
<path d="M514.899 529.199C514.899 533.799 511.199 537.499 506.599 537.499C501.999 537.499 498.299 533.799 498.299 529.199C498.299 524.599 501.999 520.899 506.599 520.899C511.199 520.899 514.899 524.599 514.899 529.199Z" fill="#E9B134"/>
<path d="M532.499 540.099C532.499 542.699 530.399 544.799 527.799 544.799C525.299 544.799 523.199 542.699 523.199 540.099C523.199 537.499 525.299 535.399 527.799 535.399C530.399 535.399 532.499 537.499 532.499 540.099Z" fill="#E9B134"/>
<path d="M563.7 550.999C563.7 554.999 560.4 558.299 556.4 558.299C552.4 558.299 549.1 554.999 549.1 550.999C549.1 546.999 552.4 543.699 556.4 543.699C560.4 543.699 563.7 546.999 563.7 550.999Z" fill="#E9B134"/>
<path d="M551.199 448.7C551.199 451.9 548.599 454.5 545.499 454.5C542.299 454.5 539.799 451.9 539.799 448.7C539.799 445.6 542.299 443 545.499 443C548.599 443 551.199 445.6 551.199 448.7Z" fill="#E9B134"/>
<path d="M563.699 472.099C563.699 474.999 561.299 477.299 558.499 477.299C555.599 477.299 553.299 474.999 553.299 472.099C553.299 469.199 555.599 466.899 558.499 466.899C561.299 466.899 563.699 469.199 563.699 472.099Z" fill="#E9B134"/>
<path d="M582.3 501.7C582.3 507.1 577.9 511.6 572.5 511.6C567 511.6 562.6 507.1 562.6 501.7C562.6 496.2 567 491.8 572.5 491.8C577.9 491.8 582.3 496.2 582.3 501.7Z" fill="#E9B134"/>
<path d="M280.3 571.2C280.3 580.7 272.6 588.4 263.1 588.4C253.7 588.4 246 580.7 246 571.2C246 561.8 253.7 554.1 263.1 554.1C272.6 554.1 280.3 561.8 280.3 571.2Z" fill="#E9B134"/>
<path d="M311.399 567.6C311.399 572.2 307.699 575.9 303.099 575.9C298.499 575.9 294.799 572.2 294.799 567.6C294.799 563 298.499 559.3 303.099 559.3C307.699 559.3 311.399 563 311.399 567.6Z" fill="#E9B134"/>
<path d="M344.599 571.8C344.599 575.2 341.799 578 338.399 578C334.899 578 332.199 575.2 332.199 571.8C332.199 568.3 334.899 565.5 338.399 565.5C341.799 565.5 344.599 568.3 344.599 571.8Z" fill="#E9B134"/>
<path d="M377.798 574.899C377.798 578.299 374.998 581.099 371.598 581.099C368.198 581.099 365.398 578.299 365.398 574.899C365.398 571.399 368.198 568.699 371.598 568.699C374.998 568.699 377.798 571.399 377.798 574.899Z" fill="#E9B134"/>
<path d="M559.499 691.2C559.499 696.3 555.299 700.5 550.199 700.5C544.999 700.5 540.799 696.3 540.799 691.2C540.799 686 544.999 681.8 550.199 681.8C555.299 681.8 559.499 686 559.499 691.2Z" fill="#E9B134"/>
<path d="M592.7 690.1C592.7 695.3 588.5 699.5 583.4 699.5C578.2 699.5 574 695.3 574 690.1C574 685 578.2 680.8 583.4 680.8C588.5 680.8 592.7 685 592.7 690.1Z" fill="#E9B134"/>
<path d="M616.599 707.2C616.599 710.4 614.099 713 610.899 713C607.699 713 605.199 710.4 605.199 707.2C605.199 704.1 607.699 701.5 610.899 701.5C614.099 701.5 616.599 704.1 616.599 707.2Z" fill="#E9B134"/>
<path d="M917.7 699.499C917.7 703.499 914.4 706.699 910.4 706.699C906.4 706.699 903.1 703.499 903.1 699.499C903.1 695.399 906.4 692.199 910.4 692.199C914.4 692.199 917.7 695.399 917.7 699.499Z" fill="#E9B134"/>
<path d="M906.198 720.7C906.198 723.3 904.198 725.4 901.598 725.4C898.998 725.4 896.898 723.3 896.898 720.7C896.898 718.2 898.998 716.1 901.598 716.1C904.198 716.1 906.198 718.2 906.198 720.7Z" fill="#E9B134"/>
<path d="M905.199 745.699C905.199 748.799 902.699 751.399 899.499 751.399C896.299 751.399 893.799 748.799 893.799 745.699C893.799 742.499 896.299 739.899 899.499 739.899C902.699 739.899 905.199 742.499 905.199 745.699Z" fill="#E9B134"/>
<path d="M761.898 561.4C761.898 565.4 758.698 568.7 754.698 568.7C750.698 568.7 747.398 565.4 747.398 561.4C747.398 557.4 750.698 554.1 754.698 554.1C758.698 554.1 761.898 557.4 761.898 561.4Z" fill="#E9B134"/>
<path d="M744.3 591C744.3 593.6 742.2 595.6 739.6 595.6C737 595.6 735 593.6 735 591C735 588.4 737 586.3 739.6 586.3C742.2 586.3 744.3 588.4 744.3 591Z" fill="#E9B134"/>
<path d="M746.4 618C746.4 620.5 744.3 622.6 741.7 622.6C739.1 622.6 737 620.5 737 618C737 615.4 739.1 613.3 741.7 613.3C744.3 613.3 746.4 615.4 746.4 618Z" fill="#E9B134"/>
<path d="M671.598 551.999C671.598 557.799 666.998 562.399 661.198 562.399C655.498 562.399 650.898 557.799 650.898 551.999C650.898 546.299 655.498 541.699 661.198 541.699C666.998 541.699 671.598 546.299 671.598 551.999Z" fill="#E9B134"/>
<path d="M662.298 521.899C662.298 524.799 659.998 527.099 657.098 527.099C654.198 527.099 651.898 524.799 651.898 521.899C651.898 519.099 654.198 516.699 657.098 516.699C659.998 516.699 662.298 519.099 662.298 521.899Z" fill="#E9B134"/>
<path d="M660.198 492.399C660.198 494.899 658.098 496.999 655.498 496.999C652.998 496.999 650.898 494.899 650.898 492.399C650.898 489.799 652.998 487.699 655.498 487.699C658.098 487.699 660.198 489.799 660.198 492.399Z" fill="#E9B134"/>
<path d="M473.3 321.1C473.3 327.7 468 333 461.4 333C454.8 333 449.5 327.7 449.5 321.1C449.5 314.5 454.8 309.1 461.4 309.1C468 309.1 473.3 314.5 473.3 321.1Z" fill="#E9B134"/>
<path d="M475.398 355.8C475.398 359.8 472.198 363.1 468.198 363.1C464.098 363.1 460.898 359.8 460.898 355.8C460.898 351.8 464.098 348.6 468.198 348.6C472.198 348.6 475.398 351.8 475.398 355.8Z" fill="#E9B134"/>
<path d="M482.699 391.099C482.699 395.099 479.399 398.399 475.399 398.399C471.399 398.399 468.199 395.099 468.199 391.099C468.199 387.099 471.399 383.899 475.399 383.899C479.399 383.899 482.699 387.099 482.699 391.099Z" fill="#E9B134"/>
<path d="M492 424.899C492 427.999 489.5 430.599 486.3 430.599C483.2 430.599 480.6 427.999 480.6 424.899C480.6 421.699 483.2 419.199 486.3 419.199C489.5 419.199 492 421.699 492 424.899Z" fill="#E9B134"/>
<path d="M340.498 413.999C340.498 421.999 333.998 428.499 325.898 428.499C317.898 428.499 311.398 421.999 311.398 413.999C311.398 405.899 317.898 399.399 325.898 399.399C333.998 399.399 340.498 405.899 340.498 413.999Z" fill="#E9B134"/>
<path d="M346.699 444.599C346.699 447.699 344.099 450.299 340.999 450.299C337.799 450.299 335.299 447.699 335.299 444.599C335.299 441.399 337.799 438.899 340.999 438.899C344.099 438.899 346.699 441.399 346.699 444.599Z" fill="#E9B134"/>
<path d="M361.199 466.399C361.199 469.599 358.699 472.099 355.499 472.099C352.399 472.099 349.799 469.599 349.799 466.399C349.799 463.199 352.399 460.699 355.499 460.699C358.699 460.699 361.199 463.199 361.199 466.399Z" fill="#E9B134"/>
<path d="M270.9 491.3C270.9 498.5 265.1 504.3 257.9 504.3C250.8 504.3 245 498.5 245 491.3C245 484.1 250.8 478.3 257.9 478.3C265.1 478.3 270.9 484.1 270.9 491.3Z" fill="#E9B134"/>
<path d="M291.7 507.4C291.7 511.4 288.4 514.7 284.4 514.7C280.4 514.7 277.1 511.4 277.1 507.4C277.1 503.4 280.4 500.1 284.4 500.1C288.4 500.1 291.7 503.4 291.7 507.4Z" fill="#E9B134"/>
<path d="M899.999 341.8C899.999 347.3 895.599 351.7 890.199 351.7C884.699 351.7 880.299 347.3 880.299 341.8C880.299 336.4 884.699 332 890.199 332C895.599 332 899.999 336.4 899.999 341.8Z" fill="#E9B134"/>
<path d="M812.798 304.399C812.798 307.599 810.298 310.199 807.098 310.199C803.998 310.199 801.398 307.599 801.398 304.399C801.398 301.299 803.998 298.699 807.098 298.699C810.298 298.699 812.798 301.299 812.798 304.399Z" fill="#E9B134"/>
<path d="M1083.8 500.099C1083.8 506.999 1078.2 512.599 1071.3 512.599C1064.4 512.599 1058.9 506.999 1058.9 500.099C1058.9 493.299 1064.4 487.699 1071.3 487.699C1078.2 487.699 1083.8 493.299 1083.8 500.099Z" fill="#E9B134"/>
<path d="M1054.7 471.6C1054.7 473.6 1053.1 475.2 1051.1 475.2C1049.1 475.2 1047.4 473.6 1047.4 471.6C1047.4 469.6 1049.1 468 1051.1 468C1053.1 468 1054.7 469.6 1054.7 471.6Z" fill="#E9B134"/>
<path d="M1036 451.3C1036 454.8 1033.2 457.6 1029.8 457.6C1026.3 457.6 1023.6 454.8 1023.6 451.3C1023.6 447.9 1026.3 445.1 1029.8 445.1C1033.2 445.1 1036 447.9 1036 451.3Z" fill="#E9B134"/>
<path d="M311.399 634.099C311.399 639.199 307.199 643.399 302.099 643.399C296.899 643.399 292.699 639.199 292.699 634.099C292.699 628.899 296.899 624.699 302.099 624.699C307.199 624.699 311.399 628.899 311.399 634.099Z" fill="#E9B134"/>
<path d="M349.799 654.3C349.799 658.6 346.299 662.1 341.999 662.1C337.699 662.1 334.199 658.6 334.199 654.3C334.199 650 337.699 646.5 341.999 646.5C346.299 646.5 349.799 650 349.799 654.3Z" fill="#E9B134"/>
<path d="M384.098 663.6C384.098 668.5 380.098 672.5 375.198 672.5C370.398 672.5 366.398 668.5 366.398 663.6C366.398 658.8 370.398 654.8 375.198 654.8C380.098 654.8 384.098 658.8 384.098 663.6Z" fill="#E9B134"/>
<path d="M1017.3 963.7C1017.3 968.5 1013.4 972.5 1008.5 972.5C1003.6 972.5 999.699 968.5 999.699 963.7C999.699 958.8 1003.6 954.8 1008.5 954.8C1013.4 954.8 1017.3 958.8 1017.3 963.7Z" fill="#E9B134"/>
<path d="M1040.2 943.9C1040.2 946.5 1038.1 948.6 1035.5 948.6C1032.9 948.6 1030.8 946.5 1030.8 943.9C1030.8 941.4 1032.9 939.3 1035.5 939.3C1038.1 939.3 1040.2 941.4 1040.2 943.9Z" fill="#E9B134"/>
<path d="M1058.9 931C1058.9 933.8 1056.5 936.2 1053.7 936.2C1050.8 936.2 1048.5 933.8 1048.5 931C1048.5 928.1 1050.8 925.8 1053.7 925.8C1056.5 925.8 1058.9 928.1 1058.9 931Z" fill="#E9B134"/>
<path d="M857.5 772.099C857.5 774.999 855.1 777.299 852.3 777.299C849.4 777.299 847.1 774.999 847.1 772.099C847.1 769.299 849.4 766.899 852.3 766.899C855.1 766.899 857.5 769.299 857.5 772.099Z" fill="#E9B134"/>
<path d="M848.098 746.2C848.098 747.9 846.698 749.3 844.998 749.3C843.298 749.3 841.898 747.9 841.898 746.2C841.898 744.5 843.298 743.1 844.998 743.1C846.698 743.1 848.098 744.5 848.098 746.2Z" fill="#E9B134"/>
<path d="M552.2 293.499C552.2 298.699 548.1 302.899 542.9 302.899C537.7 302.899 533.6 298.699 533.6 293.499C533.6 288.399 537.7 284.199 542.9 284.199C548.1 284.199 552.2 288.399 552.2 293.499Z" fill="#E9B134"/>
<path d="M561.6 331.399C561.6 335.199 558.6 338.199 554.8 338.199C551.1 338.199 548.1 335.199 548.1 331.399C548.1 327.699 551.1 324.699 554.8 324.699C558.6 324.699 561.6 327.699 561.6 331.399Z" fill="#E9B134"/>
<path d="M729.799 388.5C729.799 391.7 727.199 394.2 724.099 394.2C720.899 394.2 718.299 391.7 718.299 388.5C718.299 385.4 720.899 382.8 724.099 382.8C727.199 382.8 729.799 385.4 729.799 388.5Z" fill="#E9B134"/>
<path d="M732.9 414C732.9 416.3 731 418.1 728.7 418.1C726.4 418.1 724.6 416.3 724.6 414C724.6 411.7 726.4 409.8 728.7 409.8C731 409.8 732.9 411.7 732.9 414Z" fill="#E9B134"/>
<path d="M935.299 616.9C935.299 621.8 931.399 625.8 926.499 625.8C921.599 625.8 917.699 621.8 917.699 616.9C917.699 612.1 921.599 608.1 926.499 608.1C931.399 608.1 935.299 612.1 935.299 616.9Z" fill="#E9B134"/>
<path d="M956.099 631.5C956.099 634 953.999 636.1 951.399 636.1C948.799 636.1 946.699 634 946.699 631.5C946.699 628.9 948.799 626.8 951.399 626.8C953.999 626.8 956.099 628.9 956.099 631.5Z" fill="#E9B134"/>
<path d="M511.8 614.3C511.8 620.1 507.1 624.7 501.4 624.7C495.6 624.7 491 620.1 491 614.3C491 608.6 495.6 604 501.4 604C507.1 604 511.8 608.6 511.8 614.3Z" fill="#E9B134"/>
<path d="M537.699 632.5C537.699 635.7 535.199 638.2 531.999 638.2C528.799 638.2 526.299 635.7 526.299 632.5C526.299 629.3 528.799 626.8 531.999 626.8C535.199 626.8 537.699 629.3 537.699 632.5Z" fill="#E9B134"/>
<path d="M566.798 646.999C566.798 649.599 564.698 651.699 562.098 651.699C559.498 651.699 557.398 649.599 557.398 646.999C557.398 644.499 559.498 642.399 562.098 642.399C564.698 642.399 566.798 644.499 566.798 646.999Z" fill="#E9B134"/>
</svg>
